<?xml version="1.0" encoding="UTF-8" standalone="no"?><!-- Generator: Gravit.io --><svg xmlns="http://www.w3.org/2000/svg" xmlns:xlink="http://www.w3.org/1999/xlink" style="isolation:isolate" viewBox="0 0 619 664" width="619pt" height="664pt"><defs><clipPath id="_clipPath_WUDZMAQTtcTsbO6MbT7GB7g5HYbhQ1Y7"><rect width="619" height="664"/></clipPath></defs><g clip-path="url(#_clipPath_WUDZMAQTtcTsbO6MbT7GB7g5HYbhQ1Y7)"><g><rect x="1.33" y="469.621" width="499.3" height="5.092" transform="matrix(1,0,0,1,0,0)" fill="rgb(144,255,220)"/><rect x="1.33" y="486.605" width="499.3" height="5.092" transform="matrix(1,0,0,1,0,0)" fill="rgb(144,255,220)"/><rect x="1.33" y="503.584" width="499.3" height="5.1" transform="matrix(1,0,0,1,0,0)" fill="rgb(144,255,220)"/><rect x="1.33" y="520.567" width="499.3" height="5.096" transform="matrix(1,0,0,1,0,0)" fill="rgb(144,255,220)"/><rect x="1.33" y="401.692" width="499.3" height="5.092" transform="matrix(1,0,0,1,0,0)" fill="rgb(144,255,220)"/><rect x="1.33" y="452.638" width="499.3" height="5.096" transform="matrix(1,0,0,1,0,0)" fill="rgb(144,255,220)"/><rect x="1.33" y="418.671" width="499.3" height="5.096" transform="matrix(1,0,0,1,0,0)" fill="rgb(144,255,220)"/><rect x="1.33" y="435.655" width="499.3" height="5.096" transform="matrix(1,0,0,1,0,0)" fill="rgb(144,255,220)"/><path d=" M 96.63 588.501 L 105.451 593.592 L 396.509 593.592 L 405.33 588.501 L 96.63 588.501 Z " fill-rule="evenodd" fill="rgb(144,255,220)"/><path d=" M 184.872 639.447 L 193.697 644.542 L 308.263 644.542 L 317.084 639.447 L 184.872 639.447 Z " fill-rule="evenodd" fill="rgb(144,255,220)"/><path d=" M 214.288 656.43 L 223.113 661.522 L 278.851 661.522 L 287.672 656.43 L 214.288 656.43 Z " fill-rule="evenodd" fill="rgb(144,255,220)"/><path d=" M 155.459 622.463 L 164.28 627.559 L 337.68 627.559 L 346.501 622.463 L 155.459 622.463 Z " fill-rule="evenodd" fill="rgb(144,255,220)"/><path d=" M 67.213 571.517 L 76.038 576.609 L 425.922 576.609 L 434.747 571.517 L 67.213 571.517 Z " fill-rule="evenodd" fill="rgb(144,255,220)"/><path d=" M 126.043 605.48 L 134.868 610.576 L 367.093 610.576 L 375.914 605.48 L 126.043 605.48 Z " fill-rule="evenodd" fill="rgb(144,255,220)"/><path d=" M 37.801 554.53 L 46.626 559.626 L 455.339 559.626 L 464.159 554.53 L 37.801 554.53 Z " fill-rule="evenodd" fill="rgb(144,255,220)"/><path d=" M 8.384 537.551 L 17.209 542.646 L 484.751 542.646 L 493.576 537.551 L 8.384 537.551 Z " fill-rule="evenodd" fill="rgb(144,255,220)"/><rect x="1.33" y="384.709" width="499.3" height="5.092" transform="matrix(1,0,0,1,0,0)" fill="rgb(144,255,220)"/><path d=" M 112.684 180.917 L 103.859 186.017 L 398.101 186.017 L 389.276 180.917 L 112.684 180.917 Z " fill-rule="evenodd" fill="rgb(144,255,220)"/><path d=" M 142.101 163.938 L 133.276 169.029 L 368.684 169.029 L 359.864 163.938 L 142.101 163.938 Z " fill-rule="evenodd" fill="rgb(144,255,220)"/><path d=" M 53.855 214.884 L 45.03 219.979 L 456.93 219.979 L 448.105 214.884 L 53.855 214.884 Z " fill-rule="evenodd" fill="rgb(144,255,220)"/><path d=" M 83.272 197.9 L 74.447 202.996 L 427.514 202.996 L 418.689 197.9 L 83.272 197.9 Z " fill-rule="evenodd" fill="rgb(144,255,220)"/><path d=" M 171.513 146.954 L 162.688 152.05 L 339.272 152.05 L 330.447 146.954 L 171.513 146.954 Z " fill-rule="evenodd" fill="rgb(144,255,220)"/><path d=" M 200.926 129.971 L 192.105 135.067 L 309.855 135.067 L 301.03 129.971 L 200.926 129.971 Z " fill-rule="evenodd" fill="rgb(144,255,220)"/><path d=" M 250.934 101.1 L 251.026 101.1 L 250.98 101.075 L 250.934 101.1 Z " fill-rule="evenodd" fill="rgb(144,255,220)"/><path d=" M 230.343 112.988 L 221.518 118.084 L 280.443 118.084 L 271.618 112.988 L 230.343 112.988 Z " fill-rule="evenodd" fill="rgb(144,255,220)"/><path d=" M 24.438 231.867 L 15.617 236.959 L 486.343 236.959 L 477.518 231.867 L 24.438 231.867 Z " fill-rule="evenodd" fill="rgb(144,255,220)"/><rect x="1.33" y="333.763" width="499.3" height="5.092" transform="matrix(1,0,0,1,0,0)" fill="rgb(144,255,220)"/><rect x="1.33" y="316.775" width="499.3" height="5.096" transform="matrix(1,0,0,1,0,0)" fill="rgb(144,255,220)"/><rect x="1.33" y="350.742" width="499.3" height="5.096" transform="matrix(1,0,0,1,0,0)" fill="rgb(144,255,220)"/><rect x="1.33" y="299.796" width="499.3" height="5.092" transform="matrix(1,0,0,1,0,0)" fill="rgb(144,255,220)"/><rect x="1.33" y="367.725" width="499.3" height="5.096" transform="matrix(1,0,0,1,0,0)" fill="rgb(144,255,220)"/><rect x="1.33" y="248.846" width="499.3" height="5.096" transform="matrix(1,0,0,1,0,0)" fill="rgb(144,255,220)"/><rect x="1.33" y="282.813" width="499.3" height="5.096" transform="matrix(1,0,0,1,0,0)" fill="rgb(144,255,220)"/><rect x="1.33" y="265.83" width="499.3" height="5.096" transform="matrix(1,0,0,1,0,0)" fill="rgb(144,255,220)"/><linearGradient id="_lgradient_6" x1="0.10153466131468458" y1="0.8524246585242465" x2="0.8342026604077062" y2="0.1041679785994587" gradientTransform="matrix(499.296,0,0,576.542,45.197,75.175)" gradientUnits="userSpaceOnUse"><stop offset="1.7391304347826086%" stop-opacity="1" style="stop-color:rgb(144,255,220)"/><stop offset="99.1304347826087%" stop-opacity="1" style="stop-color:rgb(141,228,255)"/></linearGradient><path d=" M 45.197 219.313 L 45.197 507.58 L 294.847 651.717 L 544.493 507.58 L 544.493 219.313 L 294.847 75.175 L 45.197 219.313 Z " fill-rule="evenodd" fill="url(#_lgradient_6)"/><path d=" M 70.767 469.459 L 317.709 612.034 L 564.651 469.459 L 564.651 184.317 L 317.709 41.746 L 70.767 184.317 L 70.767 469.459 Z  M 317.709 618.284 L 65.351 472.584 L 65.351 181.192 L 317.709 35.496 L 570.064 181.192 L 570.064 472.584 L 317.709 618.284 Z " fill-rule="evenodd" fill="rgb(122,121,120)"/><path d=" M 518.739 162.079 C 517.239 162.079 516.03 163.292 516.03 164.788 L 516.03 173.088 C 516.03 174.584 517.239 175.792 518.739 175.792 C 520.23 175.792 521.443 174.584 521.443 173.088 L 521.443 164.788 C 521.443 163.292 520.23 162.079 518.739 162.079 Z " fill="rgb(3,4,4)"/><path d=" M 518.739 190.742 C 517.239 190.742 516.03 191.95 516.03 193.446 L 516.03 202.917 C 516.03 204.413 517.239 205.625 518.739 205.625 C 520.23 205.625 521.443 204.413 521.443 202.917 L 521.443 193.446 C 521.443 191.95 520.23 190.742 518.739 190.742 Z " fill="rgb(3,4,4)"/><path d=" M 528.318 181.196 C 528.759 181.196 529.214 181.084 529.634 180.85 L 536.693 176.9 C 537.997 176.167 538.464 174.517 537.73 173.213 C 537.005 171.909 535.355 171.446 534.051 172.175 L 526.989 176.129 C 525.684 176.859 525.218 178.509 525.951 179.813 C 526.443 180.696 527.364 181.196 528.318 181.196 Z " fill="rgb(3,4,4)"/><path d=" M 509.043 186.179 L 500.78 190.804 C 499.476 191.538 499.009 193.188 499.739 194.492 C 500.234 195.375 501.159 195.875 502.105 195.875 C 502.551 195.875 503.005 195.763 503.426 195.529 L 511.684 190.9 C 512.993 190.171 513.455 188.521 512.726 187.217 C 511.997 185.917 510.351 185.446 509.043 186.179 Z " fill="rgb(3,4,4)"/><path d=" M 501.126 176.517 L 508.518 181.125 C 508.964 181.404 509.459 181.538 509.947 181.538 C 510.851 181.538 511.734 181.084 512.247 180.263 C 513.039 178.996 512.651 177.325 511.384 176.534 L 503.997 171.925 C 502.726 171.134 501.059 171.521 500.264 172.788 C 499.476 174.054 499.864 175.725 501.126 176.517 Z " fill="rgb(3,4,4)"/><path d=" M 536.343 192.104 L 528.789 187.392 C 527.518 186.6 525.851 186.988 525.059 188.254 C 524.268 189.521 524.655 191.192 525.922 191.984 L 533.48 196.7 C 533.926 196.975 534.418 197.109 534.914 197.109 C 535.81 197.109 536.693 196.659 537.205 195.838 C 538.001 194.567 537.614 192.896 536.343 192.104 Z " fill="rgb(3,4,4)"/><path d=" M 104.317 261.675 C 98.797 261.675 94.305 257.184 94.305 251.659 C 94.305 246.138 98.797 241.646 104.317 241.646 C 109.842 241.646 114.334 246.138 114.334 251.659 C 114.334 257.184 109.842 261.675 104.317 261.675 Z  M 104.317 236.234 C 95.813 236.234 88.892 243.155 88.892 251.659 C 88.892 260.167 95.813 267.088 104.317 267.088 C 112.826 267.088 119.747 260.167 119.747 251.659 C 119.747 243.155 112.826 236.234 104.317 236.234 Z " fill="rgb(3,4,4)"/><path d=" M 375.551 532.538 L 383.48 524.58 C 384.534 523.521 384.534 521.809 383.472 520.751 C 382.414 519.696 380.701 519.701 379.647 520.759 L 371.73 528.705 L 363.805 520.759 C 362.751 519.701 361.039 519.696 359.98 520.751 C 358.918 521.809 358.918 523.521 359.972 524.58 L 367.909 532.538 L 359.547 540.93 C 358.489 541.988 358.493 543.701 359.551 544.755 C 360.08 545.284 360.772 545.542 361.464 545.542 C 362.155 545.542 362.851 545.28 363.38 544.751 L 371.73 536.371 L 380.076 544.751 C 380.601 545.28 381.297 545.542 381.989 545.542 C 382.68 545.542 383.372 545.284 383.901 544.755 C 384.959 543.701 384.964 541.988 383.905 540.93 L 375.551 532.538 Z " fill="rgb(3,4,4)"/></g><g><g opacity="0.81"><path d=" M 270.279 394.155 C 253.976 394.155 232.148 388.241 213.313 378.719 C 203.619 373.819 181.071 360.834 181.071 346.141 L 181.071 265.757 C 181.071 249.17 194.566 235.675 211.153 235.675 L 306.139 235.675 C 307.375 235.675 308.473 236.463 308.869 237.634 C 309.265 238.805 308.87 240.098 307.887 240.848 C 303.803 243.987 294.495 253.801 288.524 268.45 C 284.152 279.176 282.089 290.905 282.394 303.31 C 282.777 318.906 286.921 335.64 294.711 353.046 C 300.589 366.181 301.2 376.497 296.527 383.708 C 292.097 390.543 283.021 394.155 270.279 394.155 Z " fill="rgb(255,255,255)"/></g><g opacity="0.86"><path d=" M 401.494 486.55 L 317.88 486.55 C 317.076 486.55 316.308 486.214 315.763 485.624 C 305.811 474.85 297.404 456.41 292.698 435.03 C 288.168 414.445 288.023 395.229 292.312 383.625 C 295.83 374.107 301.589 371.519 305.802 371.024 C 306.793 370.908 307.759 370.849 308.673 370.849 C 317.683 370.849 321.729 376.337 326.013 382.148 C 332.302 390.676 340.127 401.29 368.884 401.29 C 370.019 401.29 371.192 401.273 372.373 401.24 C 392.763 400.665 426.596 374.81 426.935 374.549 C 427.806 373.879 428.982 373.763 429.966 374.247 C 430.951 374.732 431.575 375.734 431.575 376.833 L 431.575 456.468 C 431.576 473.056 418.081 486.55 401.494 486.55 Z " fill="rgb(255,255,255)"/></g><path d=" M 401.865 486.55 L 211.153 486.55 C 194.566 486.55 181.071 473.056 181.071 456.469 L 181.071 265.757 C 181.071 249.17 194.565 235.675 211.153 235.675 L 401.865 235.675 C 418.452 235.675 431.947 249.17 431.947 265.757 L 431.947 456.469 C 431.947 473.056 418.452 486.55 401.865 486.55 Z  M 211.153 241.439 C 197.744 241.439 186.835 252.348 186.835 265.757 L 186.835 456.469 C 186.835 469.878 197.744 480.786 211.153 480.786 L 401.865 480.786 C 415.274 480.786 426.183 469.878 426.183 456.469 L 426.183 265.757 C 426.183 252.348 415.274 241.439 401.865 241.439 L 211.153 241.439 Z " fill="rgb(0,0,0)"/><g><path d=" M 247.686 338.108 C 247.588 338.108 247.494 338.107 247.395 338.107 C 211.085 338.022 183.726 323.416 182.58 322.794 C 181.181 322.036 180.661 320.287 181.42 318.887 C 182.178 317.487 183.927 316.967 185.327 317.727 C 185.68 317.917 212.669 332.261 247.41 332.343 C 247.502 332.343 247.598 332.344 247.69 332.344 C 278.259 332.344 291.019 320.522 304.532 308.008 C 317.008 296.453 329.908 284.505 356.859 282.452 C 386.015 280.231 404.773 290.233 415.377 299.014 C 426.939 308.588 431.51 318.664 431.699 319.089 C 432.346 320.542 431.693 322.246 430.239 322.894 C 428.786 323.54 427.082 322.888 426.433 321.433 C 426.394 321.345 422.101 311.987 411.479 303.272 C 397.272 291.614 379.042 286.542 357.297 288.199 C 332.351 290.1 320.741 300.852 308.449 312.236 C 294.715 324.956 280.51 338.108 247.686 338.108 Z " fill="rgb(0,0,0)"/><path d=" M 365.146 431.99 C 364.525 431.99 363.902 431.986 363.271 431.976 C 339.917 431.623 325.446 422.849 310.126 413.559 C 293.202 403.297 275.701 392.685 243.822 392.685 C 243.803 392.685 243.784 392.685 243.765 392.685 C 222.316 392.694 207.638 395.862 199.101 398.518 C 189.876 401.389 185.653 404.293 185.611 404.322 C 184.31 405.229 182.513 404.918 181.601 403.619 C 180.688 402.321 180.992 400.532 182.286 399.614 C 183.016 399.096 200.656 386.938 243.763 386.921 C 243.781 386.921 243.803 386.921 243.821 386.921 C 277.314 386.921 296.332 398.453 313.115 408.63 C 327.747 417.503 341.568 425.883 363.359 426.213 C 409.554 426.902 426.456 400.701 426.621 400.437 C 427.465 399.088 429.244 398.678 430.592 399.521 C 431.942 400.364 432.352 402.142 431.509 403.492 C 431.318 403.798 426.701 411.071 415.908 418.208 C 406.325 424.544 389.812 431.99 365.146 431.99 Z " fill="rgb(0,0,0)"/></g><g><path d=" M 347.357 486.551 C 346.719 486.551 346.079 486.341 345.545 485.907 C 345.201 485.628 337.03 478.918 330.15 466.207 C 323.817 454.504 317.44 435.278 323.025 410.143 C 328.052 387.524 336.113 374.865 343.908 362.622 C 352.572 349.014 360.756 336.162 364.932 310.108 C 372.082 265.492 345.69 240.932 345.423 240.689 C 344.245 239.619 344.158 237.796 345.228 236.618 C 346.298 235.44 348.121 235.352 349.299 236.422 C 349.6 236.695 356.747 243.266 362.956 255.776 C 368.653 267.255 374.608 286.157 370.623 311.019 C 366.259 338.251 357.368 352.214 348.77 365.718 C 341.243 377.54 333.459 389.765 328.652 411.394 C 324.498 430.086 326.668 447.53 335.101 463.242 C 341.424 475.024 349.104 481.371 349.18 481.434 C 350.412 482.44 350.598 484.254 349.595 485.487 C 349.024 486.187 348.194 486.551 347.357 486.551 Z " fill="rgb(0,0,0)"/><path d=" M 265.647 486.548 C 264.887 486.548 264.13 486.249 263.565 485.652 C 262.839 484.886 245.918 466.348 258.659 420.224 C 266.304 392.543 258.816 376.435 250.888 359.381 C 244.602 345.858 238.102 331.875 238.804 311.735 C 240.378 266.613 262.451 237.975 263.389 236.778 C 264.372 235.526 266.183 235.308 267.436 236.289 C 268.688 237.271 268.907 239.083 267.925 240.336 C 267.623 240.723 246.067 268.862 244.564 311.935 C 243.91 330.696 250.114 344.043 256.115 356.951 C 264.133 374.2 272.424 392.035 264.214 421.758 C 260.803 434.106 257.571 452.157 261.542 468.028 C 263.893 477.424 267.724 481.661 267.762 481.702 C 268.835 482.867 268.775 484.687 267.618 485.769 C 267.061 486.288 266.353 486.548 265.647 486.548 Z " fill="rgb(0,0,0)"/></g></g></g></svg>