<?xml version="1.0" encoding="UTF-8" standalone="no"?><!-- Generator: Gravit.io --><svg xmlns="http://www.w3.org/2000/svg" xmlns:xlink="http://www.w3.org/1999/xlink" style="isolation:isolate" viewBox="0 0 607 664" width="607pt" height="664pt"><defs><clipPath id="_clipPath_KYxO7mz6B8yhuMhia1kfKIro4DnSZHN6"><rect width="607" height="664"/></clipPath></defs><g clip-path="url(#_clipPath_KYxO7mz6B8yhuMhia1kfKIro4DnSZHN6)"><g><path d=" M 185.413 650.126 L 193.359 650.126 L 530.188 313.296 L 530.188 305.35 L 185.413 650.126 Z " fill-rule="evenodd" fill="rgb(138,199,253)"/><path d=" M 211.909 650.126 L 219.859 650.126 L 530.188 339.796 L 530.188 331.846 L 211.909 650.126 Z " fill-rule="evenodd" fill="rgb(138,199,253)"/><path d=" M 238.405 650.126 L 246.355 650.126 L 530.188 366.292 L 530.188 358.342 L 238.405 650.126 Z " fill-rule="evenodd" fill="rgb(138,199,253)"/><path d=" M 26.434 650.126 L 34.384 650.126 L 530.188 154.325 L 530.188 146.375 L 26.434 650.126 Z " fill-rule="evenodd" fill="rgb(138,199,253)"/><path d=" M 264.9 650.126 L 272.85 650.126 L 530.188 392.788 L 530.188 384.838 L 264.9 650.126 Z " fill-rule="evenodd" fill="rgb(138,199,253)"/><path d=" M 132.417 650.126 L 140.367 650.126 L 530.188 260.305 L 530.188 252.355 L 132.417 650.126 Z " fill-rule="evenodd" fill="rgb(138,199,253)"/><path d=" M 52.929 650.126 L 60.879 650.126 L 530.188 180.821 L 530.188 172.871 L 52.929 650.126 Z " fill-rule="evenodd" fill="rgb(138,199,253)"/><path d=" M 79.429 650.126 L 87.375 650.126 L 530.188 207.313 L 530.188 199.367 L 79.429 650.126 Z " fill-rule="evenodd" fill="rgb(138,199,253)"/><path d=" M 105.921 650.126 L 113.871 650.126 L 530.188 233.809 L 530.188 225.863 L 105.921 650.126 Z " fill-rule="evenodd" fill="rgb(138,199,253)"/><path d=" M 158.917 650.126 L 166.863 650.126 L 530.188 286.805 L 530.188 278.855 L 158.917 650.126 Z " fill-rule="evenodd" fill="rgb(138,199,253)"/><path d=" M 423.88 650.126 L 431.83 650.126 L 530.188 551.763 L 530.188 543.813 L 423.88 650.126 Z " fill-rule="evenodd" fill="rgb(138,199,253)"/><path d=" M 530.188 631.255 L 530.188 623.301 L 503.367 650.126 L 511.317 650.126 L 530.188 631.255 Z " fill-rule="evenodd" fill="rgb(138,199,253)"/><path d=" M 450.376 650.126 L 458.326 650.126 L 530.188 578.263 L 530.188 570.313 L 450.376 650.126 Z " fill-rule="evenodd" fill="rgb(138,199,253)"/><path d=" M 476.871 650.126 L 484.817 650.126 L 530.188 604.755 L 530.188 596.809 L 476.871 650.126 Z " fill-rule="evenodd" fill="rgb(138,199,253)"/><path d=" M 291.4 650.126 L 299.346 650.126 L 530.188 419.284 L 530.188 411.334 L 291.4 650.126 Z " fill-rule="evenodd" fill="rgb(138,199,253)"/><path d=" M 317.892 650.126 L 325.842 650.126 L 530.188 445.78 L 530.188 437.834 L 317.892 650.126 Z " fill-rule="evenodd" fill="rgb(138,199,253)"/><path d=" M 344.388 650.126 L 352.338 650.126 L 530.188 472.276 L 530.188 464.326 L 344.388 650.126 Z " fill-rule="evenodd" fill="rgb(138,199,253)"/><path d=" M 370.888 650.126 L 378.834 650.126 L 530.188 498.771 L 530.188 490.821 L 370.888 650.126 Z " fill-rule="evenodd" fill="rgb(138,199,253)"/><path d=" M 397.384 650.126 L 405.33 650.126 L 530.188 525.267 L 530.188 517.321 L 397.384 650.126 Z " fill-rule="evenodd" fill="rgb(138,199,253)"/><path d=" M 18.667 445.926 L 18.667 453.871 L 333.938 138.604 L 325.988 138.604 L 18.667 445.926 Z " fill-rule="evenodd" fill="rgb(138,199,253)"/><path d=" M 18.667 286.946 L 18.667 294.896 L 174.959 138.604 L 167.009 138.604 L 18.667 286.946 Z " fill-rule="evenodd" fill="rgb(138,199,253)"/><path d=" M 18.667 260.45 L 18.667 268.4 L 148.459 138.604 L 140.513 138.604 L 18.667 260.45 Z " fill-rule="evenodd" fill="rgb(138,199,253)"/><path d=" M 18.667 313.442 L 18.667 321.392 L 201.454 138.604 L 193.504 138.604 L 18.667 313.442 Z " fill-rule="evenodd" fill="rgb(138,199,253)"/><path d=" M 18.667 339.942 L 18.667 347.888 L 227.955 138.604 L 220.005 138.604 L 18.667 339.942 Z " fill-rule="evenodd" fill="rgb(138,199,253)"/><path d=" M 18.667 366.434 L 18.667 374.384 L 254.446 138.604 L 246.5 138.604 L 18.667 366.434 Z " fill-rule="evenodd" fill="rgb(138,199,253)"/><path d=" M 18.667 154.467 L 18.667 162.417 L 42.475 138.604 L 34.529 138.604 L 18.667 154.467 Z " fill-rule="evenodd" fill="rgb(138,199,253)"/><path d=" M 18.667 180.963 L 18.667 188.913 L 68.971 138.604 L 61.025 138.604 L 18.667 180.963 Z " fill-rule="evenodd" fill="rgb(138,199,253)"/><path d=" M 18.667 233.955 L 18.667 241.905 L 121.967 138.604 L 114.017 138.604 L 18.667 233.955 Z " fill-rule="evenodd" fill="rgb(138,199,253)"/><path d=" M 18.667 207.463 L 18.667 215.409 L 95.471 138.604 L 87.521 138.604 L 18.667 207.463 Z " fill-rule="evenodd" fill="rgb(138,199,253)"/><path d=" M 18.667 498.917 L 18.667 506.863 L 386.93 138.604 L 378.98 138.604 L 18.667 498.917 Z " fill-rule="evenodd" fill="rgb(138,199,253)"/><path d=" M 18.667 578.405 L 18.667 586.355 L 466.417 138.604 L 458.467 138.604 L 18.667 578.405 Z " fill-rule="evenodd" fill="rgb(138,199,253)"/><path d=" M 18.667 525.413 L 18.667 533.359 L 413.425 138.604 L 405.475 138.604 L 18.667 525.413 Z " fill-rule="evenodd" fill="rgb(138,199,253)"/><path d=" M 18.667 551.909 L 18.667 559.859 L 439.921 138.604 L 431.971 138.604 L 18.667 551.909 Z " fill-rule="evenodd" fill="rgb(138,199,253)"/><path d=" M 18.667 604.901 L 18.667 612.851 L 492.913 138.604 L 484.967 138.604 L 18.667 604.901 Z " fill-rule="evenodd" fill="rgb(138,199,253)"/><path d=" M 18.667 419.43 L 18.667 427.375 L 307.442 138.604 L 299.492 138.604 L 18.667 419.43 Z " fill-rule="evenodd" fill="rgb(138,199,253)"/><path d=" M 529.863 650.126 L 530.188 650.126 L 530.188 649.801 L 529.863 650.126 Z " fill-rule="evenodd" fill="rgb(138,199,253)"/><path d=" M 18.667 631.396 L 18.667 639.347 L 519.409 138.604 L 511.463 138.604 L 18.667 631.396 Z " fill-rule="evenodd" fill="rgb(138,199,253)"/><path d=" M 18.667 392.93 L 18.667 400.88 L 280.942 138.604 L 272.996 138.604 L 18.667 392.93 Z " fill-rule="evenodd" fill="rgb(138,199,253)"/><path d=" M 18.667 472.417 L 18.667 480.371 L 360.434 138.604 L 352.484 138.604 L 18.667 472.417 Z " fill-rule="evenodd" fill="rgb(138,199,253)"/><linearGradient id="_lgradient_9" x1="1.0305073004369607" y1="-0.030512900217593897" x2="-0.05301254040996106" y2="1.0530069406293274" gradientTransform="matrix(469.15,0,0,469.146,62.242,137.629)" gradientUnits="userSpaceOnUse"><stop offset="2.608695652173913%" stop-opacity="1" style="stop-color:rgb(144,255,220)"/><stop offset="100%" stop-opacity="1" style="stop-color:rgb(138,196,255)"/></linearGradient><rect x="62.242" y="137.629" width="469.15" height="469.146" transform="matrix(1,0,0,1,0,0)" fill="url(#_lgradient_9)"/><path d=" M 80.479 587.401 L 564.563 587.401 L 564.563 103.321 L 80.479 103.321 L 80.479 587.401 Z  M 569.976 592.813 L 75.067 592.813 L 75.067 97.909 L 569.976 97.909 L 569.976 592.813 Z " fill-rule="evenodd" fill="rgb(122,121,120)"/><path d=" M 554.817 172.546 C 553.321 172.546 552.109 171.334 552.109 169.842 L 552.109 161.538 C 552.109 160.046 553.321 158.834 554.817 158.834 C 556.313 158.834 557.526 160.046 557.526 161.538 L 557.526 169.842 C 557.526 171.334 556.313 172.546 554.817 172.546 Z " fill="rgb(3,4,4)"/><path d=" M 554.817 202.375 C 553.321 202.375 552.109 201.163 552.109 199.671 L 552.109 190.2 C 552.109 188.704 553.321 187.492 554.817 187.492 C 556.313 187.492 557.526 188.704 557.526 190.2 L 557.526 199.671 C 557.526 201.163 556.313 202.375 554.817 202.375 Z " fill="rgb(3,4,4)"/><path d=" M 564.396 177.95 C 563.446 177.95 562.526 177.45 562.03 176.567 C 561.301 175.263 561.767 173.613 563.071 172.879 L 570.13 168.929 C 571.438 168.196 573.084 168.663 573.813 169.967 C 574.546 171.271 574.08 172.921 572.776 173.65 L 565.717 177.604 C 565.296 177.838 564.842 177.95 564.396 177.95 Z " fill="rgb(3,4,4)"/><path d=" M 538.188 192.625 C 537.238 192.625 536.317 192.129 535.821 191.242 C 535.092 189.938 535.559 188.288 536.863 187.559 L 545.126 182.929 C 546.43 182.2 548.08 182.667 548.809 183.971 C 549.538 185.275 549.071 186.925 547.767 187.654 L 539.505 192.279 C 539.088 192.517 538.634 192.625 538.188 192.625 Z " fill="rgb(3,4,4)"/><path d=" M 546.03 178.292 C 545.542 178.292 545.046 178.154 544.601 177.879 L 537.209 173.267 C 535.942 172.479 535.555 170.809 536.346 169.538 C 537.138 168.271 538.809 167.888 540.076 168.675 L 547.463 173.288 C 548.734 174.075 549.121 175.746 548.33 177.013 C 547.817 177.838 546.934 178.292 546.03 178.292 Z " fill="rgb(3,4,4)"/><path d=" M 570.992 193.863 C 570.501 193.863 570.005 193.729 569.559 193.45 L 562.005 188.734 C 560.738 187.946 560.346 186.275 561.138 185.009 C 561.93 183.742 563.601 183.354 564.867 184.142 L 572.426 188.859 C 573.696 189.65 574.08 191.321 573.288 192.588 C 572.776 193.409 571.892 193.863 570.992 193.863 Z " fill="rgb(3,4,4)"/><path d=" M 141.484 194.013 C 135.959 194.013 131.467 198.509 131.467 204.029 C 131.467 209.55 135.959 214.042 141.484 214.042 C 147.004 214.042 151.492 209.55 151.492 204.029 C 151.492 198.509 147.004 194.013 141.484 194.013 Z  M 141.484 219.454 C 132.975 219.454 126.054 212.534 126.054 204.029 C 126.054 195.521 132.975 188.604 141.484 188.604 C 149.988 188.604 156.909 195.521 156.909 204.029 C 156.909 212.534 149.988 219.454 141.484 219.454 Z " fill="rgb(3,4,4)"/><path d=" M 424.75 539.471 C 424.055 539.471 423.363 539.205 422.834 538.676 L 402.734 518.505 C 401.675 517.446 401.68 515.734 402.738 514.676 C 403.8 513.621 405.513 513.626 406.567 514.684 L 426.667 534.855 C 427.721 535.913 427.721 537.626 426.659 538.68 C 426.134 539.209 425.442 539.471 424.75 539.471 Z " fill="rgb(3,4,4)"/><path d=" M 404.221 539.471 C 403.53 539.471 402.838 539.209 402.313 538.68 C 401.25 537.626 401.25 535.913 402.305 534.855 L 422.405 514.684 C 423.459 513.626 425.175 513.621 426.234 514.676 C 427.292 515.734 427.296 517.446 426.238 518.505 L 406.138 538.676 C 405.609 539.205 404.917 539.471 404.221 539.471 Z " fill="rgb(3,4,4)"/></g><g><path d=" M 412.517 506.396 L 184.31 506.396 C 176.408 506.396 169.978 499.966 169.978 492.064 L 169.978 399.262 C 169.978 391.36 176.408 384.931 184.31 384.931 L 412.517 384.931 C 420.42 384.931 426.849 391.36 426.849 399.262 L 426.849 492.065 C 426.849 499.967 420.42 506.396 412.517 506.396 Z  M 184.31 390.814 C 179.652 390.814 175.862 394.604 175.862 399.262 L 175.862 492.065 C 175.862 496.723 179.651 500.513 184.31 500.513 L 412.517 500.513 C 417.176 500.513 420.966 496.723 420.966 492.065 L 420.966 399.262 C 420.966 394.604 417.176 390.814 412.517 390.814 L 184.31 390.814 Z " fill="rgb(0,0,0)"/><path d=" M 357.859 493.305 L 236.294 493.305 C 230.997 493.305 226.687 488.995 226.687 483.698 C 226.687 478.401 230.997 474.091 236.294 474.091 L 357.859 474.091 C 363.156 474.091 367.466 478.401 367.466 483.698 C 367.466 488.995 363.156 493.305 357.859 493.305 Z  M 236.294 479.974 C 234.241 479.974 232.57 481.644 232.57 483.698 C 232.57 485.752 234.241 487.422 236.294 487.422 L 357.859 487.422 C 359.912 487.422 361.583 485.752 361.583 483.698 C 361.583 481.644 359.912 479.974 357.859 479.974 L 236.294 479.974 Z " fill="rgb(0,0,0)"/><path d=" M 209.384 493.305 L 192.23 493.305 C 186.933 493.305 182.623 488.995 182.623 483.698 C 182.623 478.401 186.933 474.091 192.23 474.091 L 209.384 474.091 C 214.682 474.091 218.991 478.401 218.991 483.698 C 218.991 488.995 214.682 493.305 209.384 493.305 Z  M 192.23 479.974 C 190.177 479.974 188.506 481.645 188.506 483.698 C 188.506 485.751 190.177 487.422 192.23 487.422 L 209.384 487.422 C 211.437 487.422 213.108 485.751 213.108 483.698 C 213.108 481.645 211.437 479.974 209.384 479.974 L 192.23 479.974 Z " fill="rgb(0,0,0)"/><path d=" M 401.923 493.305 L 384.769 493.305 C 379.471 493.305 375.162 488.995 375.162 483.698 C 375.162 478.401 379.471 474.091 384.769 474.091 L 401.923 474.091 C 407.22 474.091 411.53 478.401 411.53 483.698 C 411.53 488.995 407.22 493.305 401.923 493.305 Z  M 384.768 479.974 C 382.715 479.974 381.044 481.645 381.044 483.698 C 381.044 485.751 382.715 487.422 384.768 487.422 L 401.922 487.422 C 403.976 487.422 405.646 485.751 405.646 483.698 C 405.646 481.645 403.976 479.974 401.922 479.974 L 384.768 479.974 Z " fill="rgb(0,0,0)"/><g><path d=" M 198.935 419.229 L 192.874 419.229 C 187.222 419.229 182.623 414.63 182.623 408.978 C 182.623 403.326 187.221 398.727 192.874 398.727 L 198.935 398.727 C 204.587 398.727 209.186 403.326 209.186 408.978 C 209.186 414.63 204.588 419.229 198.935 419.229 Z  M 192.874 404.61 C 190.466 404.61 188.506 406.57 188.506 408.978 C 188.506 411.386 190.466 413.346 192.874 413.346 L 198.935 413.346 C 201.344 413.346 203.303 411.386 203.303 408.978 C 203.303 406.57 201.344 404.61 198.935 404.61 L 192.874 404.61 Z " fill="rgb(0,0,0)"/><path d=" M 232.659 419.229 L 226.598 419.229 C 220.946 419.229 216.347 414.63 216.347 408.978 C 216.347 403.326 220.946 398.727 226.598 398.727 L 232.659 398.727 C 238.312 398.727 242.911 403.326 242.911 408.978 C 242.911 414.63 238.312 419.229 232.659 419.229 Z  M 226.598 404.61 C 224.189 404.61 222.23 406.57 222.23 408.978 C 222.23 411.386 224.189 413.346 226.598 413.346 L 232.659 413.346 C 235.068 413.346 237.027 411.386 237.027 408.978 C 237.027 406.57 235.068 404.61 232.659 404.61 L 226.598 404.61 Z " fill="rgb(0,0,0)"/><path d=" M 266.383 419.229 L 260.321 419.229 C 254.669 419.229 250.07 414.63 250.07 408.978 C 250.07 403.326 254.669 398.727 260.321 398.727 L 266.383 398.727 C 272.035 398.727 276.634 403.326 276.634 408.978 C 276.634 414.63 272.036 419.229 266.383 419.229 Z  M 260.321 404.61 C 257.913 404.61 255.953 406.57 255.953 408.978 C 255.953 411.386 257.913 413.346 260.321 413.346 L 266.383 413.346 C 268.792 413.346 270.751 411.386 270.751 408.978 C 270.751 406.57 268.792 404.61 266.383 404.61 L 260.321 404.61 Z " fill="rgb(0,0,0)"/><path d=" M 300.107 419.229 L 294.046 419.229 C 288.393 419.229 283.795 414.63 283.795 408.978 C 283.795 403.326 288.393 398.727 294.046 398.727 L 300.107 398.727 C 305.759 398.727 310.358 403.326 310.358 408.978 C 310.358 414.63 305.759 419.229 300.107 419.229 Z  M 294.046 404.61 C 291.637 404.61 289.678 406.57 289.678 408.978 C 289.678 411.386 291.637 413.346 294.046 413.346 L 300.107 413.346 C 302.516 413.346 304.475 411.386 304.475 408.978 C 304.475 406.57 302.516 404.61 300.107 404.61 L 294.046 404.61 Z " fill="rgb(0,0,0)"/><path d=" M 333.831 419.229 L 327.769 419.229 C 322.117 419.229 317.518 414.63 317.518 408.978 C 317.518 403.326 322.117 398.727 327.769 398.727 L 333.831 398.727 C 339.483 398.727 344.082 403.326 344.082 408.978 C 344.082 414.63 339.484 419.229 333.831 419.229 Z  M 327.769 404.61 C 325.361 404.61 323.401 406.57 323.401 408.978 C 323.401 411.386 325.361 413.346 327.769 413.346 L 333.831 413.346 C 336.239 413.346 338.199 411.386 338.199 408.978 C 338.199 406.57 336.239 404.61 333.831 404.61 L 327.769 404.61 Z " fill="rgb(0,0,0)"/><path d=" M 367.555 419.229 L 361.493 419.229 C 355.841 419.229 351.243 414.63 351.243 408.978 C 351.243 403.326 355.841 398.727 361.493 398.727 L 367.555 398.727 C 373.207 398.727 377.806 403.326 377.806 408.978 C 377.806 414.63 373.207 419.229 367.555 419.229 Z  M 361.493 404.61 C 359.085 404.61 357.126 406.57 357.126 408.978 C 357.126 411.386 359.085 413.346 361.493 413.346 L 367.555 413.346 C 369.963 413.346 371.923 411.386 371.923 408.978 C 371.923 406.57 369.963 404.61 367.555 404.61 L 361.493 404.61 Z " fill="rgb(0,0,0)"/><path d=" M 401.279 419.229 L 395.217 419.229 C 389.565 419.229 384.966 414.63 384.966 408.978 C 384.966 403.326 389.565 398.727 395.217 398.727 L 401.279 398.727 C 406.931 398.727 411.53 403.326 411.53 408.978 C 411.53 414.63 406.931 419.229 401.279 419.229 Z  M 395.217 404.61 C 392.809 404.61 390.849 406.57 390.849 408.978 C 390.849 411.386 392.809 413.346 395.217 413.346 L 401.279 413.346 C 403.687 413.346 405.647 411.386 405.647 408.978 C 405.647 406.57 403.687 404.61 401.279 404.61 L 395.217 404.61 Z " fill="rgb(0,0,0)"/></g><g><path d=" M 198.935 444.367 L 192.874 444.367 C 187.222 444.367 182.623 439.768 182.623 434.115 C 182.623 428.463 187.221 423.865 192.874 423.865 L 198.935 423.865 C 204.587 423.865 209.186 428.463 209.186 434.115 C 209.186 439.768 204.588 444.367 198.935 444.367 Z  M 192.874 429.748 C 190.466 429.748 188.506 431.707 188.506 434.115 C 188.506 436.524 190.466 438.483 192.874 438.483 L 198.935 438.483 C 201.344 438.483 203.303 436.524 203.303 434.115 C 203.303 431.707 201.344 429.748 198.935 429.748 L 192.874 429.748 Z " fill="rgb(0,0,0)"/><path d=" M 232.659 444.367 L 226.598 444.367 C 220.946 444.367 216.347 439.768 216.347 434.115 C 216.347 428.463 220.946 423.865 226.598 423.865 L 232.659 423.865 C 238.312 423.865 242.911 428.463 242.911 434.115 C 242.911 439.768 238.312 444.367 232.659 444.367 Z  M 226.598 429.748 C 224.189 429.748 222.23 431.707 222.23 434.115 C 222.23 436.524 224.189 438.483 226.598 438.483 L 232.659 438.483 C 235.068 438.483 237.027 436.524 237.027 434.115 C 237.027 431.707 235.068 429.748 232.659 429.748 L 226.598 429.748 Z " fill="rgb(0,0,0)"/><path d=" M 266.383 444.367 L 260.321 444.367 C 254.669 444.367 250.07 439.768 250.07 434.115 C 250.07 428.463 254.669 423.865 260.321 423.865 L 266.383 423.865 C 272.035 423.865 276.634 428.463 276.634 434.115 C 276.634 439.768 272.036 444.367 266.383 444.367 Z  M 260.321 429.748 C 257.913 429.748 255.953 431.707 255.953 434.115 C 255.953 436.524 257.913 438.483 260.321 438.483 L 266.383 438.483 C 268.792 438.483 270.751 436.524 270.751 434.115 C 270.751 431.707 268.792 429.748 266.383 429.748 L 260.321 429.748 Z " fill="rgb(0,0,0)"/><path d=" M 300.107 444.367 L 294.046 444.367 C 288.393 444.367 283.795 439.768 283.795 434.115 C 283.795 428.463 288.393 423.865 294.046 423.865 L 300.107 423.865 C 305.759 423.865 310.358 428.463 310.358 434.115 C 310.358 439.768 305.759 444.367 300.107 444.367 Z  M 294.046 429.748 C 291.637 429.748 289.678 431.707 289.678 434.115 C 289.678 436.524 291.637 438.483 294.046 438.483 L 300.107 438.483 C 302.516 438.483 304.475 436.524 304.475 434.115 C 304.475 431.707 302.516 429.748 300.107 429.748 L 294.046 429.748 Z " fill="rgb(0,0,0)"/><path d=" M 333.831 444.367 L 327.769 444.367 C 322.117 444.367 317.518 439.768 317.518 434.115 C 317.518 428.463 322.117 423.865 327.769 423.865 L 333.831 423.865 C 339.483 423.865 344.082 428.463 344.082 434.115 C 344.082 439.768 339.484 444.367 333.831 444.367 Z  M 327.769 429.748 C 325.361 429.748 323.401 431.707 323.401 434.115 C 323.401 436.524 325.361 438.483 327.769 438.483 L 333.831 438.483 C 336.239 438.483 338.199 436.524 338.199 434.115 C 338.199 431.707 336.239 429.748 333.831 429.748 L 327.769 429.748 Z " fill="rgb(0,0,0)"/><path d=" M 367.555 444.367 L 361.493 444.367 C 355.841 444.367 351.243 439.768 351.243 434.115 C 351.243 428.463 355.841 423.865 361.493 423.865 L 367.555 423.865 C 373.207 423.865 377.806 428.463 377.806 434.115 C 377.806 439.768 373.207 444.367 367.555 444.367 Z  M 361.493 429.748 C 359.085 429.748 357.126 431.707 357.126 434.115 C 357.126 436.524 359.085 438.483 361.493 438.483 L 367.555 438.483 C 369.963 438.483 371.923 436.524 371.923 434.115 C 371.923 431.707 369.963 429.748 367.555 429.748 L 361.493 429.748 Z " fill="rgb(0,0,0)"/><path d=" M 401.279 444.367 L 395.217 444.367 C 389.565 444.367 384.966 439.768 384.966 434.115 C 384.966 428.463 389.565 423.865 395.217 423.865 L 401.279 423.865 C 406.931 423.865 411.53 428.463 411.53 434.115 C 411.53 439.768 406.931 444.367 401.279 444.367 Z  M 395.217 429.748 C 392.809 429.748 390.849 431.707 390.849 434.115 C 390.849 436.524 392.809 438.483 395.217 438.483 L 401.279 438.483 C 403.687 438.483 405.647 436.524 405.647 434.115 C 405.647 431.707 403.687 429.748 401.279 429.748 L 395.217 429.748 Z " fill="rgb(0,0,0)"/></g><g><path d=" M 198.935 469.504 L 192.874 469.504 C 187.222 469.504 182.623 464.905 182.623 459.253 C 182.623 453.601 187.221 449.002 192.874 449.002 L 198.935 449.002 C 204.587 449.002 209.186 453.601 209.186 459.253 C 209.186 464.905 204.588 469.504 198.935 469.504 Z  M 192.874 454.886 C 190.466 454.886 188.506 456.845 188.506 459.253 C 188.506 461.661 190.466 463.621 192.874 463.621 L 198.935 463.621 C 201.344 463.621 203.303 461.661 203.303 459.253 C 203.303 456.845 201.344 454.886 198.935 454.886 L 192.874 454.886 Z " fill="rgb(0,0,0)"/><path d=" M 232.659 469.504 L 226.598 469.504 C 220.946 469.504 216.347 464.905 216.347 459.253 C 216.347 453.601 220.946 449.002 226.598 449.002 L 232.659 449.002 C 238.312 449.002 242.911 453.601 242.911 459.253 C 242.911 464.905 238.312 469.504 232.659 469.504 Z  M 226.598 454.886 C 224.189 454.886 222.23 456.845 222.23 459.253 C 222.23 461.661 224.189 463.621 226.598 463.621 L 232.659 463.621 C 235.068 463.621 237.027 461.661 237.027 459.253 C 237.027 456.845 235.068 454.886 232.659 454.886 L 226.598 454.886 Z " fill="rgb(0,0,0)"/><path d=" M 266.383 469.504 L 260.321 469.504 C 254.669 469.504 250.07 464.905 250.07 459.253 C 250.07 453.601 254.669 449.002 260.321 449.002 L 266.383 449.002 C 272.035 449.002 276.634 453.601 276.634 459.253 C 276.634 464.905 272.036 469.504 266.383 469.504 Z  M 260.321 454.886 C 257.913 454.886 255.953 456.845 255.953 459.253 C 255.953 461.661 257.913 463.621 260.321 463.621 L 266.383 463.621 C 268.792 463.621 270.751 461.661 270.751 459.253 C 270.751 456.845 268.792 454.886 266.383 454.886 L 260.321 454.886 Z " fill="rgb(0,0,0)"/><path d=" M 300.107 469.504 L 294.046 469.504 C 288.393 469.504 283.795 464.905 283.795 459.253 C 283.795 453.601 288.393 449.002 294.046 449.002 L 300.107 449.002 C 305.759 449.002 310.358 453.601 310.358 459.253 C 310.358 464.905 305.759 469.504 300.107 469.504 Z  M 294.046 454.886 C 291.637 454.886 289.678 456.845 289.678 459.253 C 289.678 461.661 291.637 463.621 294.046 463.621 L 300.107 463.621 C 302.516 463.621 304.475 461.661 304.475 459.253 C 304.475 456.845 302.516 454.886 300.107 454.886 L 294.046 454.886 Z " fill="rgb(0,0,0)"/><path d=" M 333.831 469.504 L 327.769 469.504 C 322.117 469.504 317.518 464.905 317.518 459.253 C 317.518 453.601 322.117 449.002 327.769 449.002 L 333.831 449.002 C 339.483 449.002 344.082 453.601 344.082 459.253 C 344.082 464.905 339.484 469.504 333.831 469.504 Z  M 327.769 454.886 C 325.361 454.886 323.401 456.845 323.401 459.253 C 323.401 461.661 325.361 463.621 327.769 463.621 L 333.831 463.621 C 336.239 463.621 338.199 461.661 338.199 459.253 C 338.199 456.845 336.239 454.886 333.831 454.886 L 327.769 454.886 Z " fill="rgb(0,0,0)"/><path d=" M 367.555 469.504 L 361.493 469.504 C 355.841 469.504 351.243 464.905 351.243 459.253 C 351.243 453.601 355.841 449.002 361.493 449.002 L 367.555 449.002 C 373.207 449.002 377.806 453.601 377.806 459.253 C 377.806 464.905 373.207 469.504 367.555 469.504 Z  M 361.493 454.886 C 359.085 454.886 357.126 456.845 357.126 459.253 C 357.126 461.661 359.085 463.621 361.493 463.621 L 367.555 463.621 C 369.963 463.621 371.923 461.661 371.923 459.253 C 371.923 456.845 369.963 454.886 367.555 454.886 L 361.493 454.886 Z " fill="rgb(0,0,0)"/><path d=" M 401.279 469.504 L 395.217 469.504 C 389.565 469.504 384.966 464.905 384.966 459.253 C 384.966 453.601 389.565 449.002 395.217 449.002 L 401.279 449.002 C 406.931 449.002 411.53 453.601 411.53 459.253 C 411.53 464.905 406.931 469.504 401.279 469.504 Z  M 395.217 454.886 C 392.809 454.886 390.849 456.845 390.849 459.253 C 390.849 461.661 392.809 463.621 395.217 463.621 L 401.279 463.621 C 403.687 463.621 405.647 461.661 405.647 459.253 C 405.647 456.845 403.687 454.886 401.279 454.886 L 395.217 454.886 Z " fill="rgb(0,0,0)"/></g><path d=" M 206.641 381.173 C 194.096 381.173 184.074 376.509 177.658 367.685 C 170.958 358.473 170.235 347.761 170.235 343.583 L 170.235 300.575 C 170.235 285.512 182.49 273.257 197.553 273.257 L 214.936 273.257 C 229.999 273.257 242.254 285.512 242.254 300.575 L 242.254 343.583 C 242.254 360.923 232.927 381.173 206.641 381.173 Z  M 197.553 279.14 C 185.733 279.14 176.118 288.756 176.118 300.574 L 176.118 343.582 C 176.118 347.185 176.732 356.409 182.415 364.225 C 187.754 371.568 195.905 375.29 206.641 375.29 C 217.322 375.29 225.328 371.583 230.438 364.27 C 235.792 356.607 236.371 347.25 236.371 343.582 L 236.371 300.574 C 236.371 288.755 226.755 279.14 214.936 279.14 L 197.553 279.14 Z " fill="rgb(0,0,0)"/><path d=" M 239.313 312.832 L 173.177 312.832 C 171.552 312.832 170.235 311.514 170.235 309.89 L 170.235 300.574 C 170.235 285.511 182.49 273.257 197.553 273.257 L 214.936 273.257 C 229.999 273.257 242.254 285.511 242.254 300.574 L 242.254 309.89 C 242.254 311.515 240.937 312.832 239.313 312.832 Z  M 176.118 306.948 L 236.371 306.948 L 236.371 300.574 C 236.371 288.755 226.755 279.14 214.937 279.14 L 197.553 279.14 C 185.733 279.14 176.118 288.756 176.118 300.574 L 176.118 306.948 Z " fill="rgb(0,0,0)"/><path d=" M 206.245 305.849 C 204.62 305.849 203.303 304.532 203.303 302.908 L 203.303 283.56 C 203.303 281.936 204.62 280.619 206.245 280.619 C 207.87 280.619 209.186 281.936 209.186 283.56 L 209.186 302.908 C 209.186 304.532 207.869 305.849 206.245 305.849 Z " fill="rgb(0,0,0)"/><path d=" M 297.077 387.986 C 295.452 387.986 294.135 386.669 294.135 385.045 L 294.135 384.385 C 294.135 373.174 303.079 364.012 314.207 363.662 C 314.419 363.613 314.641 363.587 314.868 363.587 L 405.046 363.587 C 413.235 363.587 419.896 356.925 419.896 348.736 L 419.896 348.076 C 419.896 339.887 413.235 333.226 405.046 333.226 L 335.317 333.226 C 323.884 333.226 314.583 323.924 314.583 312.492 L 314.583 311.832 C 314.583 300.399 323.884 291.098 335.317 291.098 L 395.22 291.098 C 396.845 291.098 398.162 292.415 398.162 294.04 C 398.162 295.664 396.845 296.981 395.22 296.981 L 335.317 296.981 C 327.128 296.981 320.466 303.643 320.466 311.832 L 320.466 312.492 C 320.466 320.681 327.128 327.343 335.317 327.343 L 405.046 327.343 C 416.478 327.343 425.78 336.644 425.78 348.076 L 425.78 348.736 C 425.78 360.169 416.478 369.47 405.046 369.47 L 315.482 369.47 C 315.284 369.512 315.079 369.534 314.868 369.534 C 306.68 369.534 300.018 376.196 300.018 384.385 L 300.018 385.045 C 300.018 386.669 298.701 387.986 297.077 387.986 Z " fill="rgb(0,0,0)"/><path d=" M 284.9 363.25 L 284.24 363.25 C 272.808 363.25 263.506 353.949 263.506 342.517 L 263.506 272.451 C 263.464 272.253 263.442 272.048 263.442 271.837 C 263.442 263.649 256.78 256.987 248.592 256.987 L 226.212 256.987 C 226.142 256.987 226.072 256.985 226.004 256.98 C 225.949 256.977 219.213 256.614 214.398 261.14 C 210.94 264.391 209.186 269.457 209.186 276.198 C 209.186 277.822 207.87 279.139 206.245 279.139 C 204.62 279.139 203.303 277.822 203.303 276.198 C 203.303 267.729 205.702 261.201 210.433 256.794 C 216.806 250.856 225.126 251.047 226.294 251.104 L 248.592 251.104 C 259.803 251.104 268.965 260.048 269.315 271.175 C 269.364 271.388 269.39 271.609 269.39 271.836 L 269.39 342.516 C 269.39 350.704 276.052 357.366 284.241 357.366 L 284.901 357.366 C 293.089 357.366 299.751 350.704 299.751 342.516 L 299.751 271.837 C 299.751 261.501 307.502 255.33 320.485 255.33 L 395.221 255.33 C 396.846 255.33 398.163 256.647 398.163 258.271 C 398.163 259.896 396.846 261.213 395.221 261.213 L 320.484 261.213 C 308.211 261.213 305.634 266.991 305.634 271.837 L 305.634 342.517 C 305.634 353.949 296.333 363.25 284.9 363.25 Z " fill="rgb(0,0,0)"/><path d=" M 409.321 310.672 L 402.513 310.672 C 396.87 310.672 392.278 306.081 392.278 300.437 L 392.278 287.643 C 392.278 281.999 396.869 277.408 402.513 277.408 L 409.321 277.408 C 414.964 277.408 419.556 281.999 419.556 287.643 L 419.556 300.438 C 419.556 306.081 414.964 310.672 409.321 310.672 Z " fill="rgb(255,255,255)"/><path d=" M 409.321 274.903 L 402.513 274.903 C 396.87 274.903 392.278 270.312 392.278 264.668 L 392.278 251.874 C 392.278 246.23 396.869 241.639 402.513 241.639 L 409.321 241.639 C 414.964 241.639 419.556 246.23 419.556 251.874 L 419.556 264.669 C 419.556 270.312 414.964 274.903 409.321 274.903 Z " fill="rgb(255,255,255)"/></g></g></svg>