<?xml version="1.0" encoding="UTF-8" standalone="no"?><!-- Generator: Gravit.io --><svg xmlns="http://www.w3.org/2000/svg" xmlns:xlink="http://www.w3.org/1999/xlink" style="isolation:isolate" viewBox="0 0 609 664" width="609pt" height="664pt"><defs><clipPath id="_clipPath_LNZYzVNR7UwkgvxAi8NjgdqaNEQWQrFj"><rect width="609" height="664"/></clipPath></defs><g clip-path="url(#_clipPath_LNZYzVNR7UwkgvxAi8NjgdqaNEQWQrFj)"><g><path d=" M 14.301 483.584 C 14.989 485.542 15.693 487.488 16.422 489.421 L 521.143 489.421 C 521.873 487.488 522.577 485.542 523.26 483.584 L 14.301 483.584 Z " fill-rule="evenodd" fill="rgb(144,251,225)"/><path d=" M 21.985 503.055 C 22.847 505.013 23.73 506.955 24.643 508.892 L 512.923 508.892 C 513.831 506.955 514.718 505.013 515.581 503.055 L 21.985 503.055 Z " fill-rule="evenodd" fill="rgb(144,251,225)"/><path d=" M 8.314 464.113 C 8.835 466.071 9.376 468.017 9.935 469.955 L 527.623 469.955 C 528.189 468.017 528.731 466.071 529.252 464.113 L 8.314 464.113 Z " fill-rule="evenodd" fill="rgb(144,251,225)"/><path d=" M 0.968 425.175 C 1.193 427.125 1.43 429.075 1.693 431.017 L 535.873 431.017 C 536.131 429.075 536.368 427.125 536.593 425.175 L 0.968 425.175 Z " fill-rule="evenodd" fill="rgb(144,251,225)"/><path d=" M 3.893 444.642 C 4.264 446.596 4.647 448.546 5.055 450.488 L 532.506 450.488 C 532.918 448.546 533.298 446.596 533.668 444.642 L 3.893 444.642 Z " fill-rule="evenodd" fill="rgb(144,251,225)"/><path d=" M 31.497 522.521 C 32.56 524.484 33.643 526.43 34.747 528.363 L 502.814 528.363 C 503.923 526.43 505.006 524.484 506.068 522.521 L 31.497 522.521 Z " fill-rule="evenodd" fill="rgb(144,251,225)"/><path d=" M 74.072 580.926 C 75.968 582.909 77.897 584.851 79.856 586.771 L 457.71 586.771 C 459.664 584.851 461.598 582.909 463.493 580.926 L 74.072 580.926 Z " fill-rule="evenodd" fill="rgb(144,251,225)"/><path d=" M 322.072 658.809 L 215.489 658.809 C 232.718 662.263 250.539 664.084 268.781 664.084 C 287.027 664.084 304.847 662.263 322.072 658.809 Z " fill-rule="evenodd" fill="rgb(144,251,225)"/><path d=" M 120.835 619.867 C 123.881 621.876 126.968 623.821 130.101 625.705 L 407.46 625.705 C 410.593 623.821 413.681 621.876 416.731 619.867 L 120.835 619.867 Z " fill-rule="evenodd" fill="rgb(144,251,225)"/><path d=" M -0.524 405.705 C -0.449 407.659 -0.345 409.605 -0.224 411.546 L 537.789 411.546 C 537.91 409.605 538.014 407.659 538.089 405.705 L -0.524 405.705 Z " fill-rule="evenodd" fill="rgb(144,251,225)"/><path d=" M 43.122 541.992 C 44.41 543.955 45.722 545.901 47.06 547.83 L 490.506 547.83 C 491.843 545.901 493.156 543.955 494.443 541.992 L 43.122 541.992 Z " fill-rule="evenodd" fill="rgb(144,251,225)"/><path d=" M 94.797 600.396 C 97.143 602.384 99.51 604.338 101.926 606.242 L 435.639 606.242 C 438.052 604.338 440.422 602.384 442.768 600.396 L 94.797 600.396 Z " fill-rule="evenodd" fill="rgb(144,251,225)"/><path d=" M 57.131 561.463 C 58.689 563.43 60.276 565.376 61.885 567.301 L 475.681 567.301 C 477.285 565.376 478.877 563.43 480.435 561.463 L 57.131 561.463 Z " fill-rule="evenodd" fill="rgb(144,251,225)"/><path d=" M 155.847 639.338 C 160.31 641.401 164.835 643.355 169.431 645.176 L 368.135 645.176 C 372.731 643.355 377.256 641.401 381.718 639.338 L 155.847 639.338 Z " fill-rule="evenodd" fill="rgb(144,251,225)"/><path d=" M 91.431 191.546 C 89.247 193.459 87.097 195.409 84.972 197.388 L 452.593 197.388 C 450.468 195.409 448.318 193.459 446.135 191.546 L 91.431 191.546 Z " fill-rule="evenodd" fill="rgb(144,251,225)"/><path d=" M 71.368 211.017 C 69.576 212.938 67.814 214.884 66.085 216.854 L 471.481 216.854 C 469.752 214.884 467.985 212.938 466.198 211.017 L 71.368 211.017 Z " fill-rule="evenodd" fill="rgb(144,251,225)"/><path d=" M -0.636 386.238 C -0.695 388.18 -0.724 390.125 -0.745 392.08 L 538.31 392.08 C 538.289 390.125 538.256 388.18 538.202 386.238 L -0.636 386.238 Z " fill-rule="evenodd" fill="rgb(144,251,225)"/><path d=" M 41.247 249.95 C 40.018 251.884 38.814 253.83 37.635 255.792 L 499.923 255.792 C 498.748 253.83 497.548 251.884 496.318 249.95 L 41.247 249.95 Z " fill-rule="evenodd" fill="rgb(144,251,225)"/><path d=" M 202.731 133.138 C 195.989 134.838 189.343 136.784 182.814 138.979 L 354.752 138.979 C 348.222 136.784 341.577 134.838 334.835 133.138 L 202.731 133.138 Z " fill-rule="evenodd" fill="rgb(144,251,225)"/><path d=" M 116.526 172.075 C 113.76 173.975 111.026 175.921 108.335 177.917 L 429.231 177.917 C 426.539 175.921 423.806 173.975 421.031 172.075 L 116.526 172.075 Z " fill-rule="evenodd" fill="rgb(144,251,225)"/><path d=" M 149.801 152.609 C 146.022 154.471 142.289 156.417 138.61 158.45 L 398.956 158.45 C 395.277 156.417 391.543 154.471 387.764 152.609 L 149.801 152.609 Z " fill-rule="evenodd" fill="rgb(144,251,225)"/><path d=" M 54.893 230.484 C 53.418 232.409 51.96 234.359 50.535 236.325 L 487.031 236.325 C 485.606 234.359 484.148 232.409 482.664 230.484 L 54.893 230.484 Z " fill-rule="evenodd" fill="rgb(144,251,225)"/><path d=" M 3.355 347.3 C 3.01 349.238 2.689 351.184 2.389 353.138 L 535.177 353.138 C 534.873 351.184 534.552 349.238 534.21 347.3 L 3.355 347.3 Z " fill-rule="evenodd" fill="rgb(144,251,225)"/><path d=" M 0.639 366.767 C 0.443 368.709 0.272 370.659 0.118 372.609 L 537.443 372.609 C 537.293 370.659 537.118 368.709 536.923 366.767 L 0.639 366.767 Z " fill-rule="evenodd" fill="rgb(144,251,225)"/><path d=" M 7.547 327.83 C 7.055 329.771 6.576 331.713 6.122 333.671 L 531.443 333.671 C 530.989 331.713 530.51 329.771 530.018 327.83 L 7.547 327.83 Z " fill-rule="evenodd" fill="rgb(144,251,225)"/><path d=" M 13.297 308.359 C 12.643 310.296 12.005 312.246 11.401 314.2 L 526.164 314.2 C 525.552 312.246 524.923 310.296 524.268 308.359 L 13.297 308.359 Z " fill-rule="evenodd" fill="rgb(144,251,225)"/><path d=" M 20.718 288.892 C 19.897 290.825 19.097 292.775 18.314 294.73 L 519.248 294.73 C 518.464 292.775 517.668 290.825 516.843 288.892 L 20.718 288.892 Z " fill-rule="evenodd" fill="rgb(144,251,225)"/><path d=" M 29.976 269.421 C 28.964 271.355 27.972 273.3 27.001 275.263 L 510.564 275.263 C 509.589 273.3 508.602 271.355 507.589 269.421 L 29.976 269.421 Z " fill-rule="evenodd" fill="rgb(144,251,225)"/><linearGradient id="_lgradient_24" x1="0" y1="0.5" x2="1" y2="0.5" gradientTransform="matrix(539.117,0,0,539.113,36.031,97.909)" gradientUnits="userSpaceOnUse"><stop offset="0%" stop-opacity="1" style="stop-color:rgb(144,255,220)"/><stop offset="0%" stop-opacity="1" style="stop-color:rgb(142,248,218)"/><stop offset="0%" stop-opacity="1" style="stop-color:rgb(144,255,220)"/><stop offset="100%" stop-opacity="1" style="stop-color:rgb(141,228,255)"/></linearGradient><path d=" M 575.148 367.463 C 575.148 516.334 454.46 637.021 305.589 637.021 C 156.718 637.021 36.031 516.334 36.031 367.463 C 36.031 218.592 156.718 97.909 305.589 97.909 C 454.46 97.909 575.148 218.592 575.148 367.463 Z " fill-rule="evenodd" fill="url(#_lgradient_24)"/><linearGradient id="_lgradient_25" x1="0.0000076518704998918" y1="0.4999999999999998" x2="0.9999999999999996" y2="0.4999999999999998" gradientTransform="matrix(544.53,0,0,544.525,57.139,75.717)" gradientUnits="userSpaceOnUse"><stop offset="0%" stop-opacity="1" style="stop-color:rgb(134,212,235)"/><stop offset="30%" stop-opacity="1" style="stop-color:rgb(106,204,224)"/><stop offset="50%" stop-opacity="1" style="stop-color:rgb(108,170,220)"/><stop offset="90%" stop-opacity="1" style="stop-color:rgb(100,105,176)"/><stop offset="100%" stop-opacity="1" style="stop-color:rgb(98,97,171)"/></linearGradient><path d=" M 329.406 81.129 C 182.264 81.129 62.556 200.838 62.556 347.98 C 62.556 495.121 182.264 614.83 329.406 614.83 C 476.548 614.83 596.256 495.121 596.256 347.98 C 596.256 200.838 476.548 81.129 329.406 81.129 Z  M 329.406 620.242 C 256.681 620.242 188.31 591.921 136.885 540.496 C 85.46 489.076 57.139 420.7 57.139 347.98 C 57.139 275.255 85.46 206.884 136.885 155.463 C 188.31 104.038 256.681 75.717 329.406 75.717 C 402.127 75.717 470.502 104.038 521.923 155.463 C 573.348 206.884 601.668 275.255 601.668 347.98 C 601.668 420.7 573.348 489.076 521.923 540.496 C 470.502 591.921 402.127 620.242 329.406 620.242 Z " fill-rule="evenodd" fill="url(#_lgradient_25)"/><path d=" M 527.718 162.079 C 526.223 162.079 525.014 163.292 525.014 164.788 L 525.014 173.088 C 525.014 174.584 526.223 175.792 527.718 175.792 C 529.214 175.792 530.423 174.584 530.423 173.088 L 530.423 164.788 C 530.423 163.292 529.214 162.079 527.718 162.079 Z " fill="rgb(25,25,25)"/><path d=" M 527.718 190.742 C 526.223 190.742 525.014 191.95 525.014 193.446 L 525.014 202.917 C 525.014 204.413 526.223 205.625 527.718 205.625 C 529.214 205.625 530.423 204.413 530.423 202.917 L 530.423 193.446 C 530.423 191.95 529.214 190.742 527.718 190.742 Z " fill="rgb(25,25,25)"/><path d=" M 537.298 181.196 C 537.743 181.196 538.202 181.084 538.614 180.85 L 545.681 176.9 C 546.981 176.167 547.443 174.517 546.718 173.213 C 545.985 171.909 544.339 171.446 543.031 172.175 L 535.968 176.129 C 534.664 176.859 534.206 178.509 534.927 179.813 C 535.431 180.696 536.348 181.196 537.298 181.196 Z " fill="rgb(25,25,25)"/><path d=" M 518.027 186.179 L 509.76 190.804 C 508.46 191.538 507.993 193.188 508.723 194.492 C 509.223 195.375 510.139 195.875 511.089 195.875 C 511.531 195.875 511.993 195.763 512.406 195.529 L 520.668 190.9 C 521.977 190.171 522.439 188.521 521.71 187.217 C 520.981 185.917 519.331 185.446 518.027 186.179 Z " fill="rgb(25,25,25)"/><path d=" M 510.11 176.517 L 517.502 181.125 C 517.943 181.404 518.439 181.538 518.931 181.538 C 519.831 181.538 520.71 181.084 521.223 180.263 C 522.023 178.996 521.635 177.325 520.364 176.534 L 512.977 171.925 C 511.706 171.134 510.035 171.521 509.243 172.788 C 508.456 174.054 508.843 175.725 510.11 176.517 Z " fill="rgb(25,25,25)"/><path d=" M 545.331 192.104 L 537.768 187.392 C 536.502 186.6 534.835 186.988 534.043 188.254 C 533.252 189.521 533.635 191.192 534.91 191.984 L 542.464 196.7 C 542.902 196.975 543.406 197.109 543.889 197.109 C 544.798 197.109 545.681 196.659 546.193 195.838 C 546.985 194.567 546.598 192.896 545.331 192.104 Z " fill="rgb(25,25,25)"/><path d=" M 113.301 261.675 C 107.781 261.675 103.289 257.184 103.289 251.659 C 103.289 246.138 107.781 241.646 113.301 241.646 C 118.822 241.646 123.314 246.138 123.314 251.659 C 123.314 257.184 118.822 261.675 113.301 261.675 Z  M 113.301 236.234 C 104.797 236.234 97.876 243.155 97.876 251.659 C 97.876 260.167 104.797 267.088 113.301 267.088 C 121.81 267.088 128.726 260.167 128.726 251.659 C 128.726 243.155 121.81 236.234 113.301 236.234 Z " fill="rgb(25,25,25)"/><path d=" M 384.531 532.538 L 392.464 524.58 C 393.518 523.521 393.514 521.809 392.456 520.751 C 391.397 519.696 389.685 519.701 388.627 520.759 L 380.71 528.705 L 372.789 520.759 C 371.735 519.701 370.022 519.696 368.96 520.751 C 367.902 521.809 367.902 523.521 368.956 524.58 L 376.889 532.538 L 368.527 540.93 C 367.472 541.988 367.477 543.701 368.535 544.755 C 369.064 545.284 369.756 545.542 370.447 545.542 C 371.139 545.542 371.835 545.28 372.364 544.751 L 380.71 536.371 L 389.06 544.751 C 389.589 545.28 390.281 545.542 390.977 545.542 C 391.668 545.542 392.36 545.284 392.885 544.755 C 393.943 543.701 393.943 541.988 392.893 540.93 L 384.531 532.538 Z " fill="rgb(25,25,25)"/></g><g><g><g><g><path d=" M 451.533 469.441 L 399.518 417.425 L 399.518 417.425 L 377.547 395.455 L 377.547 395.455 L 371.851 389.758 C 377.624 380.345 381.855 370.126 384.441 359.341 C 387.199 347.836 388.008 336.023 386.847 324.23 C 385.676 312.337 382.535 300.837 377.512 290.05 C 372.314 278.887 365.224 268.772 356.438 259.987 C 346.362 249.91 334.611 242.108 321.513 236.796 C 308.863 231.666 295.498 229.065 281.789 229.065 C 268.078 229.065 254.713 231.666 242.064 236.796 C 228.966 242.107 217.216 249.91 207.139 259.987 C 197.062 270.063 189.26 281.814 183.949 294.912 C 178.819 307.561 176.218 320.927 176.218 334.636 C 176.218 348.346 178.82 361.712 183.949 374.361 C 189.26 387.459 197.063 399.209 207.139 409.286 C 217.215 419.362 228.965 427.164 242.063 432.475 C 254.713 437.605 268.078 440.206 281.786 440.206 C 301.361 440.206 320.355 434.854 336.91 424.7 L 342.607 430.396 L 342.607 430.396 L 364.578 452.367 L 364.578 452.367 L 416.593 504.382 C 420.689 508.479 426.137 510.735 431.931 510.735 L 431.933 510.735 C 437.727 510.735 443.174 508.479 447.271 504.382 L 451.534 500.118 C 455.631 496.021 457.888 490.574 457.888 484.78 C 457.888 478.985 455.63 473.538 451.533 469.441 Z  M 354.289 431.939 L 352.745 430.395 L 377.546 405.595 L 389.378 417.425 L 364.576 442.226 L 354.289 431.939 Z  M 337.895 415.545 L 335.458 417.134 C 319.504 427.537 300.944 433.037 281.785 433.037 C 269.004 433.037 256.546 430.613 244.757 425.831 C 232.552 420.883 221.601 413.61 212.208 404.217 C 202.813 394.822 195.54 383.871 190.592 371.667 C 185.81 359.877 183.386 347.419 183.386 334.637 C 183.386 321.855 185.81 309.396 190.592 297.607 C 195.54 285.403 202.813 274.451 212.207 265.057 C 221.602 255.663 232.553 248.39 244.757 243.441 C 256.546 238.661 269.006 236.236 281.787 236.236 C 294.569 236.236 307.028 238.66 318.817 243.441 C 331.021 248.39 341.973 255.663 351.367 265.057 C 359.558 273.249 366.167 282.675 371.011 293.077 C 375.692 303.129 378.619 313.847 379.71 324.933 C 381.901 347.185 376.423 369.692 364.284 388.308 L 362.696 390.744 L 372.476 400.525 L 347.675 425.326 L 337.895 415.545 Z  M 446.463 495.048 L 442.2 499.312 C 439.457 502.055 435.811 503.565 431.933 503.565 C 431.932 503.565 431.932 503.565 431.932 503.565 C 428.051 503.565 424.405 502.054 421.662 499.312 L 369.648 447.297 L 394.449 422.496 L 446.464 474.511 C 449.207 477.254 450.717 480.901 450.717 484.78 C 450.717 488.658 449.206 492.305 446.463 495.048 Z " fill="rgb(0,0,0)"/><path d=" M 331.911 284.513 C 318.522 271.124 300.721 263.751 281.787 263.751 C 272.583 263.751 263.61 265.497 255.115 268.943 C 246.319 272.51 238.428 277.748 231.664 284.513 C 224.899 291.279 219.659 299.169 216.093 307.964 C 212.649 316.457 210.902 325.432 210.902 334.636 C 210.902 343.841 212.648 352.815 216.093 361.309 C 219.66 370.104 224.898 377.995 231.665 384.76 C 245.053 398.148 262.854 405.521 281.788 405.521 C 290.991 405.521 299.965 403.775 308.46 400.329 C 317.256 396.762 325.146 391.524 331.911 384.759 C 338.676 377.993 343.915 370.103 347.482 361.308 C 350.926 352.815 352.673 343.84 352.673 334.636 C 352.673 325.43 350.926 316.457 347.482 307.963 C 343.915 299.169 338.676 291.279 331.911 284.513 Z  M 326.841 379.69 C 314.807 391.724 298.807 398.352 281.787 398.352 C 264.768 398.352 248.768 391.724 236.733 379.69 C 224.699 367.655 218.072 351.656 218.071 334.636 C 218.071 317.618 224.699 301.617 236.733 289.583 C 248.768 277.549 264.767 270.921 281.787 270.921 C 298.805 270.921 314.807 277.548 326.841 289.583 C 338.875 301.617 345.503 317.618 345.503 334.637 C 345.503 351.656 338.875 367.655 326.841 379.69 Z " fill="rgb(0,80,204)"/></g></g><g><path d=" M 281.878 405.551 C 262.944 405.551 245.143 398.177 231.754 384.789 C 224.989 378.023 219.75 370.133 216.183 361.338 C 212.739 352.845 210.992 343.87 210.992 334.666 C 210.992 325.461 212.738 316.487 216.183 307.994 C 219.75 299.198 224.988 291.308 231.754 284.543 C 238.518 277.777 246.409 272.539 255.205 268.972 C 263.7 265.527 272.673 263.781 281.877 263.781 C 300.811 263.781 318.612 271.154 332 284.543 C 338.766 291.308 344.005 299.198 347.572 307.994 C 351.016 316.487 352.763 325.461 352.763 334.666 C 352.763 343.87 351.017 352.845 347.572 361.338 C 344.005 370.134 338.767 378.024 332 384.789 C 325.236 391.554 317.345 396.792 308.549 400.36 C 300.055 403.804 291.081 405.551 281.878 405.551 Z  M 281.878 270.95 C 264.859 270.95 248.858 277.578 236.824 289.612 C 224.79 301.646 218.162 317.646 218.162 334.666 C 218.162 351.685 224.79 367.685 236.824 379.719 C 248.859 391.753 264.858 398.381 281.878 398.381 C 298.897 398.381 314.897 391.754 326.932 379.719 C 338.966 367.685 345.593 351.685 345.593 334.666 C 345.593 317.647 338.966 301.647 326.932 289.613 C 314.896 277.578 298.896 270.95 281.878 270.95 Z " fill="rgb(0,0,0)"/></g></g><path d=" M 377.019 394.927 L 341.784 429.574 L 365.02 452.81 L 399.961 417.869 L 377.019 394.927 Z " fill="rgb(255,255,255)"/></g></g></svg>