<?xml version="1.0" encoding="UTF-8" standalone="no"?><!-- Generator: Gravit.io --><svg xmlns="http://www.w3.org/2000/svg" xmlns:xlink="http://www.w3.org/1999/xlink" style="isolation:isolate" viewBox="0 0 241 120" width="241pt" height="120pt"><defs><clipPath id="_clipPath_JGOoIryFEc9CBcM345njvAXMl2kksPGn"><rect width="241" height="120"/></clipPath></defs><g clip-path="url(#_clipPath_JGOoIryFEc9CBcM345njvAXMl2kksPGn)"><g><path d=" M 29.002 24.05 C 29.002 25.58 27.764 26.81 26.235 26.81 C 24.707 26.81 23.468 25.58 23.468 24.05 C 23.468 22.52 24.707 21.28 26.235 21.28 C 27.764 21.28 29.002 22.52 29.002 24.05 Z " fill-rule="evenodd" fill="rgb(10,13,14)"/><path d=" M 57.002 24.05 C 57.002 25.58 55.764 26.81 54.235 26.81 C 52.707 26.81 51.468 25.58 51.468 24.05 C 51.468 22.52 52.707 21.28 54.235 21.28 C 55.764 21.28 57.002 22.52 57.002 24.05 Z " fill-rule="evenodd" fill="rgb(10,13,14)"/><path d=" M 85.002 24.05 C 85.002 25.58 83.764 26.81 82.235 26.81 C 80.707 26.81 79.468 25.58 79.468 24.05 C 79.468 22.52 80.707 21.28 82.235 21.28 C 83.764 21.28 85.002 22.52 85.002 24.05 Z " fill-rule="evenodd" fill="rgb(10,13,14)"/><path d=" M 77.177 91.08 L 53.743 104.6 L 53.743 77.54 L 77.177 91.08 Z  M 81.728 91.08 L 51.468 73.6 L 51.468 108.55 L 81.728 91.08 L 81.728 91.08 Z " fill-rule="evenodd" fill="rgb(135,203,172)"/><path d=" M 128.93 91.08 L 105.495 104.6 L 105.495 77.54 L 128.93 91.08 Z  M 133.481 91.08 L 103.22 73.6 L 103.22 108.55 L 133.481 91.08 L 133.481 91.08 Z " fill-rule="evenodd" fill="rgb(10,13,14)"/><path d=" M 180.683 91.08 L 157.248 104.6 L 157.248 77.54 L 180.683 91.08 Z  M 185.234 91.08 L 154.974 73.6 L 154.974 108.55 L 185.234 91.08 L 185.234 91.08 Z " fill-rule="evenodd" fill="rgb(10,13,14)"/><path d=" M 232.44 91.08 L 209 104.6 L 209 77.54 L 232.44 91.08 Z  M 236.99 91.08 L 206.727 73.6 L 206.727 108.55 L 236.99 91.08 L 236.99 91.08 Z " fill-rule="evenodd" fill="rgb(10,13,14)"/></g></g></svg>